<svg width="16" height="23" viewBox="0 0 16 23" fill="none" xmlns="http://www.w3.org/2000/svg">
<path d="M0.5 1.48215e-05C0.23115 7.14147e-06 -0.00019987 0.281382 1.29577e-07 0.512015V21.504C2.51296e-05 21.7721 0.2382 22.016 0.5 22.016H15C15.2618 22.016 15.5 21.7721 15.5 21.504V5.12001C15.5 4.98371 15.4463 4.84786 15.3516 4.75201L10.8516 0.144015C10.7585 0.0518574 10.6294 -0.00101686 10.5 1.48215e-05H0.5ZM1 1.02401H10V5.12001C10 5.38809 10.2382 5.63199 10.5 5.63201H14.5V20.992H1V1.02401ZM11 1.74401L13.7969 4.60802H11V1.74401ZM3.25 8.704C2.97385 8.704 2.75 8.93322 2.75 9.216C2.75 9.49878 2.97385 9.728 3.25 9.728H12.25C12.5261 9.728 12.75 9.49878 12.75 9.216C12.75 8.93322 12.5261 8.704 12.25 8.704H3.25ZM3.25 12.8C2.97385 12.8 2.75 13.0292 2.75 13.312C2.75 13.5948 2.97385 13.824 3.25 13.824H12.25C12.5261 13.824 12.75 13.5948 12.75 13.312C12.75 13.0292 12.5261 12.8 12.25 12.8H3.25ZM3.25 16.896C2.97385 16.896 2.75 17.1252 2.75 17.408C2.75 17.6908 2.97385 17.92 3.25 17.92H12.25C12.5261 17.92 12.75 17.6908 12.75 17.408C12.75 17.1252 12.5261 16.896 12.25 16.896H3.25Z" fill="#E4000F"/>
</svg>
