<svg width="58" height="77" viewBox="0 0 58 77" fill="none" xmlns="http://www.w3.org/2000/svg">
<path d="M57.7986 15.3462L57.7315 15.2788V15.2115L42.963 0.403846L42.8958 0.336538C42.8958 0.336538 42.8287 0.336538 42.8287 0.269231C42.8287 0.269231 42.7616 0.269231 42.7616 0.201923C42.4931 0 42.2245 0 41.956 0H5.30324C3.89352 0 2.55093 0.538462 1.61111 1.48077L1.54398 1.54808C0.604167 2.49038 0 3.90385 0 5.31731V71.6827C0 73.1635 0.604167 74.5096 1.54398 75.4519C2.4838 76.3942 3.89352 77 5.30324 77H52.6968C54.1736 77 55.5162 76.3942 56.456 75.4519C57.3958 74.5096 58 73.0962 58 71.6827V16.1538C58 15.8173 57.8657 15.6154 57.7986 15.3462ZM43.4329 5.58654L52.2269 14.4038H45.7824C45.1782 14.4038 44.5069 14.2019 44.1713 13.7308C43.7685 13.3269 43.5 12.7212 43.5 12.1154L43.4329 5.58654ZM54.6435 71.6827C54.6435 72.2212 54.4421 72.6923 54.0394 73.0962C53.6366 73.5 53.1667 73.7019 52.6296 73.7019H5.30324C4.7662 73.7019 4.2963 73.5 3.89352 73.1635C3.49074 72.7596 3.35648 72.2885 3.35648 71.75V5.25C3.35648 4.71154 3.55787 4.24038 3.96065 3.83654L4.02778 3.76923C4.43056 3.43269 4.90046 3.23077 5.37037 3.23077H40.2106V12.0481C40.2106 13.5962 40.8148 15.0096 41.956 16.0865C42.963 17.0962 44.4398 17.7019 45.9838 17.7019H54.6435V71.6827Z" fill="#E4322B"/>
<path d="M35.0416 52.1634H11.9491C11.2778 52.1634 10.7407 51.625 10.7407 50.9519C10.7407 50.2788 11.2778 49.7404 11.9491 49.7404H34.9745C35.6458 49.7404 36.1828 50.2788 36.1828 50.9519C36.25 51.625 35.7129 52.1634 35.0416 52.1634Z" fill="#E4322B"/>
<path d="M28.1944 56.5384H11.9491C11.2778 56.5384 10.7407 56 10.7407 55.3269C10.7407 54.6538 11.2778 54.1154 11.9491 54.1154H28.1944C28.8657 54.1154 29.4028 54.6538 29.4028 55.3269C29.4699 56 28.9329 56.5384 28.1944 56.5384Z" fill="#E4322B"/>
<path d="M21.9514 61.0481H11.9491C11.2778 61.0481 10.7407 60.5096 10.7407 59.8365C10.7407 59.1635 11.2778 58.625 11.9491 58.625H21.9514C22.6227 58.625 23.1597 59.1635 23.1597 59.8365C23.2268 60.5096 22.6898 61.0481 21.9514 61.0481Z" fill="#E4322B"/>
<path d="M13.952 35.352C14.368 35.352 14.7333 35.2987 15.048 35.192C15.368 35.0853 15.632 34.936 15.84 34.744C16.0533 34.5467 16.2133 34.3093 16.32 34.032C16.4267 33.7547 16.48 33.4453 16.48 33.104C16.48 32.768 16.4267 32.4667 16.32 32.2C16.2187 31.9333 16.064 31.7067 15.856 31.52C15.648 31.3333 15.384 31.192 15.064 31.096C14.7493 30.9947 14.3787 30.944 13.952 30.944H12.24V35.352H13.952ZM13.952 29.48C14.704 29.48 15.3547 29.568 15.904 29.744C16.4587 29.92 16.9147 30.168 17.272 30.488C17.6347 30.8027 17.904 31.184 18.08 31.632C18.256 32.0747 18.344 32.5653 18.344 33.104C18.344 33.6533 18.2507 34.1573 18.064 34.616C17.8773 35.0693 17.6 35.4613 17.232 35.792C16.864 36.1173 16.4053 36.3733 15.856 36.56C15.312 36.7413 14.6773 36.832 13.952 36.832H12.24V41H10.368V29.48H13.952ZM23.7176 35.352C24.1336 35.352 24.499 35.2987 24.8136 35.192C25.1336 35.0853 25.3976 34.936 25.6056 34.744C25.819 34.5467 25.979 34.3093 26.0856 34.032C26.1923 33.7547 26.2456 33.4453 26.2456 33.104C26.2456 32.768 26.1923 32.4667 26.0856 32.2C25.9843 31.9333 25.8296 31.7067 25.6216 31.52C25.4136 31.3333 25.1496 31.192 24.8296 31.096C24.515 30.9947 24.1443 30.944 23.7176 30.944H22.0056V35.352H23.7176ZM23.7176 29.48C24.4696 29.48 25.1203 29.568 25.6696 29.744C26.2243 29.92 26.6803 30.168 27.0376 30.488C27.4003 30.8027 27.6696 31.184 27.8456 31.632C28.0216 32.0747 28.1096 32.5653 28.1096 33.104C28.1096 33.6533 28.0163 34.1573 27.8296 34.616C27.643 35.0693 27.3656 35.4613 26.9976 35.792C26.6296 36.1173 26.171 36.3733 25.6216 36.56C25.0776 36.7413 24.443 36.832 23.7176 36.832H22.0056V41H20.1336V29.48H23.7176ZM37.8273 31.04H34.2353V41H32.3713V31.04H28.7713V29.48H37.8273V31.04ZM48.5265 41H46.6625C46.5345 41 46.4305 40.9653 46.3505 40.896C46.2705 40.8267 46.2065 40.7493 46.1585 40.664L43.2945 36.048C43.2732 36.112 43.2492 36.1733 43.2225 36.232C43.2012 36.2907 43.1745 36.3467 43.1425 36.4L40.3745 40.664C40.3158 40.7493 40.2492 40.8267 40.1745 40.896C40.1052 40.9653 40.0118 41 39.8945 41H38.1505L42.0385 35.08L38.3105 29.48H40.1665C40.2998 29.48 40.3958 29.5013 40.4545 29.544C40.5185 29.5813 40.5745 29.64 40.6225 29.72L43.4225 34.12C43.4492 34.056 43.4758 33.992 43.5025 33.928C43.5292 33.864 43.5638 33.7973 43.6065 33.728L46.2145 29.752C46.2678 29.6613 46.3265 29.5947 46.3905 29.552C46.4545 29.504 46.5318 29.48 46.6225 29.48H48.4065L44.6465 35L48.5265 41Z" fill="#E4000F"/>
</svg>
